<?xml version="1.0" encoding="UTF-8" standalone="no"?>
<!-- Created with Inkscape (http://www.inkscape.org/) -->

<svg
   width="210mm"
   height="225mm"
   viewBox="0 0 210 225"
   version="1.1"
   id="svg5"
   inkscape:version="1.1.1 (3bf5ae0d25, 2021-09-20)"
   sodipodi:docname="beaver.svg"
   xmlns:inkscape="http://www.inkscape.org/namespaces/inkscape"
   xmlns:sodipodi="http://sodipodi.sourceforge.net/DTD/sodipodi-0.dtd"
   xmlns="http://www.w3.org/2000/svg"
   xmlns:svg="http://www.w3.org/2000/svg">
  <sodipodi:namedview
     id="namedview7"
     pagecolor="#ffffff"
     bordercolor="#666666"
     borderopacity="1.0"
     inkscape:pageshadow="2"
     inkscape:pageopacity="0.0"
     inkscape:pagecheckerboard="0"
     inkscape:document-units="mm"
     showgrid="false"
     inkscape:zoom="0.35355339"
     inkscape:cx="1211.981"
     inkscape:cy="291.32799"
     inkscape:window-width="2400"
     inkscape:window-height="1262"
     inkscape:window-x="-8"
     inkscape:window-y="-8"
     inkscape:window-maximized="1"
     inkscape:current-layer="layer1" />
  <defs
     id="defs2" />
  <g
     inkscape:label="Layer 1"
     inkscape:groupmode="layer"
     id="layer1">
    <g
       id="g15231">
      <path
         style="fill:#000000;stroke-width:0.322983"
         d="m 181.04651,215.36466 c -6.1218,-1.60381 -11.00237,-6.17593 -13.51474,-12.66061 -0.43212,-1.11537 -0.92582,-2.24595 -1.09709,-2.51241 -1.16651,-1.81479 -2.02396,-4.18915 -5.79241,-16.03974 -1.77452,-5.58031 -2.76663,-7.51 -5.98399,-11.63913 -2.90469,-3.72785 -9.87641,-10.6647 -11.32778,-11.27112 -2.11299,-0.88286 -6.74849,-0.0601 -16.28723,2.89098 -7.06743,2.18648 -7.25392,2.22078 -11.8838,2.18558 -5.05294,-0.0384 -11.81796,-0.64409 -22.513843,-2.01568 -6.70238,-0.85948 -8.45105,-0.97334 -12.91931,-0.84117 -0.0863,-0.29239 3.25372,-1.90594 -0.0223,-2.30263 -3.36094,-0.40698 -1.02306,-0.12073 -4.37075,0.10887 -2.90779,0.19943 -7.17692,0.0329 -10.19619,0.7257 -3.02806,0.6948 -6.45908,0.86709 -8.872997,1.00397 -1.93256,0.10958 1.054667,-3.92021 -0.51157,-3.8763 -3.87648,0.10867 -0.74061,-0.97654 -3.72946,-0.83861 -0.8302,0.0383 1.02119,-1.4848 0.61992,-2.23295 -0.47752,-0.89032 -0.42401,-1.60289 -1.47123,-1.80988 -2.72638,-0.53889 2.69613,-1.393 1.22434,-1.97768 -3.04241,-1.20863 5.599607,-2.84629 7.531817,-3.59419 2.57302,-0.99594 6.4211,-0.18733 6.85166,-0.64186 0.95332,-1.00639 18.78409,4.23725 18.8412,3.18499 0.10985,-2.02371 -3.81761,-3.75378 -4.23672,-4.53932 l -1.21836,-2.2835 c -0.42271,-0.79227 -0.7955,-1.25848 -2.11337,-1.06405 -6.97448,1.02899 -7.57512,1.25538 -12.76712,1.71222 -3.47782,0.30601 -5.14042,0.78093 -5.6093,0.9018 -2.26068,0.58282 -4.617957,1.87071 -5.575537,1.26938 -1.11642,-0.70107 -1.03817,-0.56634 -1.75552,-1.05716 -2.07788,-1.42171 -2.19065,-3.72407 -2.57792,-4.01454 -1.32672,-0.99507 0.77313,-0.71832 -0.0507,-1.73232 -0.53717,-0.66118 1.08074,-1.99602 1.08074,-1.99602 0.98505,-0.41162 1.77813,-1.25421 1.56142,-1.75411 -0.94141,-2.17161 7.874477,-2.27538 9.617287,-2.34709 6.5686,-0.27027 13.62716,0.40544 13.62716,0.40544 l 0.2246,-1.57683 c 0.12353,-0.86726 -1.816744,-5.66079 0.181323,-6.60861 0.428728,-0.20337 -0.89797,0.47769 1.774762,-1.8025 2.467712,-2.10529 2.076107,-3.75945 5.264095,-6.56583 0.654033,-0.57575 4.155446,-5.38877 4.810752,-5.96799 1.700896,-1.50339 4.712346,-4.2603 6.302068,-5.6797 2.314775,-2.06676 5.450256,-2.057 7.636443,-2.33851 4.30856,-0.55481 10.23674,1.86177 10.23359,1.78033 -0.005,-0.1178 -9.22842,-7.569401 -13.361337,-6.035125 -2.202869,0.817805 -4.608603,1.433495 -6.90287,3.339485 -1.616711,1.3431 -3.679917,3.70367 -4.799455,5.26734 -1.167025,1.63 -2.830853,3.15296 -3.989775,4.40059 -1.665313,1.79277 -0.264584,0.39687 -3.035676,3.54698 0,0 -0.748765,2.54659 -1.298248,3.1418 -1.393521,1.50948 -2.79805,3.60904 -2.79805,3.60904 -0.793833,-0.46522 -1.635232,-3.28957 -2.678242,-4.25521 -1.41232,-1.30757 -1.98976,-1.66234 -2.26221,-1.38989 -0.62006,0.62006 -1.86865,-0.21382 -3.36427,-2.24685 -0.75864,-1.03122 -1.65687,-2.49157 -1.99606,-3.2452 -0.45875,-1.01926 -0.75792,-1.32543 -1.16795,-1.1953 -0.41782,0.13262 -0.71172,-0.19829 -1.21433,-1.36725 -0.3647,-0.84821 -0.75925,-1.9259 -0.87678,-2.39485 -0.11753,-0.46895 -0.58429,-1.17488 -1.03726,-1.56873 -0.79693,-0.69292 -3.190086,-4.81497 -0.292883,-4.92425 l 3.492624,-0.60737 3.143458,-1.69374 3.404395,-1.87029 3.234007,-2.176461 3.052567,-2.071377 1.84742,-2.191494 2.192015,-2.667228 1.238772,-3.181921 1.159294,-3.741678 1.185093,-4.434246 0.341304,-6.700228 -1.828129,7.104482 -1.943205,5.790856 -2.167104,4.988245 -2.207402,3.346288 -2.670524,2.380427 -2.923831,2.011581 -4.72256,2.056014 -3.685751,1.76798 -3.84709,0.50794 c 0,0 -1.83528,0.50508 -2.26098,0.64106 -0.677127,0.21631 -0.751657,0.16185 -0.595537,-0.43517 0.2595,-0.99233 -0.15598,-1.08873 -2.29899,-0.53342 -3.52788,0.91416 -4.48912,0.57443 -3.08755,-1.09124 0.75766,-0.90043 0.77923,-0.99629 0.22423,-0.99629 -0.33775,0 -1.91107,0.43841 -3.49628,0.97424 -3.20738,1.08417 -3.87202,1.05251 -3.56524,-0.16979 l 0.2019,-0.80445 H 41.5838 38.79563 l 0.1427,-0.97226 0.1427,-0.972263 -1.9636,0.201176 c -1.33831,0.137117 -2.48465,0.04644 -3.59989,-0.284755 -2.60778,-0.774425 -3.47458,0.116581 -1.9157,1.969202 1.07939,1.28277 1.03496,2.46494 -0.13665,3.63655 -1.06178,1.06179 -1.55855,1.15644 -2.46622,0.4699 -0.91359,-0.691 -0.97972,-0.62801 -0.84322,0.80327 0.14961,1.56884 -0.34249,2.2548 -1.61757,2.2548 -0.73242,0 -1.38409,-0.44502 -2.87299,-1.96192 -1.05913,-1.07905 -2.2292,-2.55683 -2.60015,-3.28395 -1.40589,-2.75576 -0.1853,-7.384932 2.74734,-10.419553 1.13796,-1.177521 1.66519,-1.451468 3.65445,-1.898825 1.27855,-0.287528 2.91365,-0.522779 3.63355,-0.522779 0.94816,0 1.30892,-0.133528 1.30892,-0.484474 0,-0.266461 0.28475,-0.484474 0.63279,-0.484474 1.84899,0 10.26433,-3.678248 10.11825,-4.422571 -0.0379,-0.193004 0.8705,-0.900291 2.01864,-1.571739 0.27044,-0.158157 1.10912,-0.822049 2.23336,-1.746403 0.91218,-0.749997 2.01234,-1.671462 3.14949,-2.633385 1.13714,-0.961923 2.31127,-1.964303 3.37137,-2.876129 1.06011,-0.911826 2.00619,-1.733098 2.68724,-2.332803 0.681059,-0.599705 1.097089,-0.977844 1.097089,-1.003405 0,-0.183037 -1.555009,1.309842 -4.147329,2.882975 -0.70044,0.425058 -1.67974,1.153681 -2.44336,1.602353 -1.29554,0.761212 -2.54988,1.99211 -3.8191,2.648594 -1.09811,0.567973 -1.76317,0.588361 -2.65872,0.92624 -0.89434,0.33742 -2.30019,0.01052 -2.82345,-0.02178 -2.06989,-0.1278 -3.93149,-0.438846 -4.89173,-0.817339 -1.45459,-0.573346 -1.57972,-0.577283 -2.02891,-0.06383 -0.2633,0.300961 -0.57334,1.205978 -0.68898,2.011144 -0.11564,0.805171 -0.50685,1.951649 -0.86935,2.547733 l -0.65909,1.083787 -2.10862,-0.196906 c -2.74482,-0.256316 -5.3894,-1.458547 -6.05969,-2.754741 -1.07528,-2.079353 -0.32816,-6.143074 1.4706,-7.998925 1.29567,-1.336796 2.00651,-1.571358 7.14566,-2.357914 4.34898,-0.665622 4.90161,-0.831874 4.56667,-1.373823 -0.14126,-0.228572 0.40334,-0.268173 1.69039,-0.122924 2.42636,0.273827 6.14721,-0.259184 7.21124,-1.033005 1.15289,-0.838453 2.27765,-3.191811 2.27765,-4.765588 0,-2.757945 -3.4169,-6.280945 -7.39464,-7.624249 -1.09363,-0.369324 -2.57981,-1.165592 -3.30262,-1.769489 -0.72282,-0.603896 -1.48214,-1.120129 -1.68738,-1.147185 -0.20525,-0.02707 -0.53521,-0.06558 -0.73326,-0.08561 -0.19805,-0.02002 -1.28929,-0.998197 -2.42499,-2.173705 -2.00093,-2.071064 -2.16992,-2.169451 -5.4536,-3.17506 -3.7719,-1.155121 -5.1651,-2.129885 -5.1651,-3.613805 0,-0.737742 -0.24991,-1.027378 -1.37268,-1.590845 -2.89709,-1.45393 -4.67778,-3.087638 -5.68478,-5.215555 -1.92275,-4.063013 -3.01906,-7.701675 -2.87383,-9.538248 0.171,-2.162444 0.99508,-3.06507 4.53228,-4.964268 1.44178,-0.77412 4.13452,-2.512061 5.98387,-3.862091 1.84934,-1.350029 3.78238,-2.702661 4.29564,-3.005848 0.90511,-0.534667 0.93319,-0.531268 0.93319,0.112976 0,0.909323 0.27969,0.854168 3.15074,-0.621328 1.3758,-0.707054 2.92504,-1.382848 3.44276,-1.501764 0.80988,-0.186024 0.9107,-0.136438 0.72206,0.355147 -0.24878,0.648297 -0.34898,0.659698 3.82733,-0.435496 1.42113,-0.372675 3.76657,-0.85138 5.2121,-1.063792 2.25011,-0.33064 2.69714,-0.31729 3.10723,0.0928 0.41908,0.419085 0.9387,0.424171 4.1544,0.04066 4.10853,-0.489995 8.054697,-0.346335 11.813517,0.430069 2.89164,0.597284 4.34413,1.253643 4.11213,1.858212 -0.11113,0.28959 0.84735,0.805459 3.03777,1.634992 3.6035,1.364674 5.54344,2.539374 5.54625,3.358437 0.002,0.493609 4.03241,3.781736 6.49988,5.302389 1.27364,0.784919 5.83158,2.3464 8.72256,2.988218 2.11779,0.470163 2.44431,0.63256 2.30936,1.148582 -0.12773,0.488461 0.0757,0.63708 1.08628,0.793697 2.64893,0.410512 8.086323,1.471322 9.299553,1.814301 l 1.27346,0.360007 -0.78899,0.611211 c -1.04265,0.807717 -0.54947,1.125855 2.20214,1.420527 2.81118,0.301052 9.49609,1.702498 9.86086,2.067261 0.17488,0.174882 -0.11701,0.38263 -0.72533,0.516239 -0.55989,0.122971 -0.96348,0.387089 -0.89687,0.586927 0.0666,0.199837 2.5088,0.973066 5.42707,1.718285 2.91828,0.745221 5.74198,1.531081 6.2749,1.746356 l 0.96895,0.39141 -1.07311,0.455227 c -0.59022,0.250375 -1.01689,0.623896 -0.94818,0.830046 0.0687,0.206151 1.8597,0.97867 3.97996,1.716709 7.00091,2.43694 9.77698,3.794426 9.19462,4.496125 -0.2372,0.285811 0.30156,0.786531 2.01299,1.870864 2.51539,1.593706 6.47142,5.047329 5.80895,5.071223 -0.80309,0.02897 -0.37156,0.877569 1.24539,2.44907 0.90702,0.881526 2.66644,2.747472 3.90981,4.146545 1.68669,1.897894 2.15109,2.611511 1.82902,2.810558 -0.34216,0.211467 -0.28044,0.454178 0.29766,1.170528 0.40113,0.497057 1.66031,2.284491 2.79818,3.972075 1.79238,2.658282 1.98545,3.082125 1.44473,3.171543 -0.34327,0.05676 -0.62413,0.218304 -0.62413,0.358976 0,0.140675 0.72802,1.359966 1.61783,2.709539 0.88981,1.349576 1.75485,2.814157 1.92231,3.254627 0.26741,0.703334 0.21092,0.813119 -0.46391,0.901551 -0.7665,0.100448 -0.76522,0.105893 0.51774,2.200083 1.36819,2.233311 3.18866,5.659136 3.18866,6.000522 0,0.112892 -0.2038,0.127051 -0.4529,0.03146 -0.80136,-0.307512 -0.82056,0.146786 -0.0573,1.355871 0.95238,1.508665 2.29457,4.1758 2.60502,5.176574 0.19694,0.634867 0.14594,0.737408 -0.28115,0.565219 -0.28696,-0.115692 -0.76312,-0.307534 -1.05814,-0.426317 -0.41927,-0.168814 -0.49314,-0.08066 -0.33831,0.403728 0.10894,0.340834 0.49054,1.615494 0.848,2.832588 0.35746,1.21708 0.74046,2.49812 0.85111,2.84675 0.15566,0.49043 0.0669,0.61093 -0.39236,0.53247 -0.67605,-0.11551 -0.69519,0.1377 -0.29317,3.87733 0.2364,2.19898 0.21226,2.35664 -0.34611,2.26088 -0.47055,-0.0807 -0.58025,0.0715 -0.50774,0.70451 0.0509,0.4441 0.17867,2.18527 0.28401,3.86926 0.16714,2.67203 0.13103,3.01159 -0.2837,2.66741 -0.26137,-0.21692 -0.53602,-0.33359 -0.61034,-0.25927 -0.0743,0.0743 -0.0373,1.41748 0.0823,2.98479 0.37598,4.92673 0.33922,5.92285 -0.21076,5.71181 -0.41602,-0.15964 -0.48447,0.43509 -0.48447,4.20889 0,2.41716 -0.11628,4.39482 -0.25839,4.39482 -0.14211,0 -0.42013,-0.16174 -0.61782,-0.35943 -0.19769,-0.19769 -0.53371,-0.25174 -0.7467,-0.1201 -0.28663,0.17715 -0.32763,1.19387 -0.15778,3.91225 0.22222,3.55638 0.2086,3.6729 -0.42927,3.6729 -0.9913,0 -1.09404,0.45291 -0.53722,2.36831 0.49563,1.7049 0.55629,1.76707 2.67684,2.74334 2.99698,1.37975 4.47641,1.87402 8.95236,2.99094 5.54588,1.3839 7.70972,2.12764 10.81991,3.71896 4.71042,2.41007 10.08343,7.21506 13.14592,11.75618 5.67666,8.41746 8.88047,23.97839 7.18181,34.88211 -0.50837,3.26319 -2.13178,8.25978 -3.76667,11.5932 -1.65518,3.37478 -4.14894,6.23856 -6.45849,7.4168 -3.31837,1.69291 -8.72296,2.11368 -12.94426,1.00776 z M 41.29141,19.321418 c -0.10979,-0.17764 -0.54582,-0.322982 -0.96895,-0.322982 -0.42313,0 -0.85916,0.145342 -0.96895,0.322982 -0.11902,0.19259 0.27215,0.322983 0.96895,0.322983 0.6968,0 1.08797,-0.130393 0.96895,-0.322983 z"
         id="path4479"
         sodipodi:nodetypes="csssssssscsssssssssssssssssssssssscsssssssssssssssssssssssscccccccccccccccccccsssssssscccccsssssssssssssssssssssssssssssscsssssssssssssssssssssssssssssssscssssscssssssscsssssssssssssscsssssssssssssscssscsssssssssssssssccsssss" />
      <g
         id="g8592">
        <circle
           id="path7933"
           style="fill:#000000;stroke:#000000;stroke-width:0.264583"
           cx="52.291279"
           cy="136.15378"
           r="0.0011773397" />
        <circle
           id="path7935"
           style="fill:#000000;stroke:#000000;stroke-width:0.264583"
           cx="52.291279"
           cy="136.15378"
           r="0.0011773397" />
        <circle
           id="path7937"
           style="fill:#000000;stroke:#000000;stroke-width:0.264583"
           cx="50.420395"
           cy="136.76183"
           r="0.0011773397" />
        <circle
           id="path7939"
           style="fill:#000000;stroke:#000000;stroke-width:0.264583"
           cx="50.420395"
           cy="136.76183"
           r="0.0011773397" />
        <circle
           id="path7941"
           style="fill:#000000;stroke:#000000;stroke-width:0.264583"
           cx="49.812359"
           cy="137.46339"
           r="0.0011773397" />
        <circle
           id="path7943"
           style="fill:#000000;stroke:#000000;stroke-width:0.264583"
           cx="49.812359"
           cy="137.46339"
           r="0.0011773397" />
        <circle
           id="path7945"
           style="fill:#000000;stroke:#000000;stroke-width:0.264583"
           cx="50.888115"
           cy="137.51016"
           r="0.0011773397" />
        <circle
           id="path7947"
           style="fill:#000000;stroke:#000000;stroke-width:0.264583"
           cx="50.888115"
           cy="137.51016"
           r="0.0011773397" />
        <circle
           id="path7949"
           style="fill:#000000;stroke:#000000;stroke-width:0.264583"
           cx="50.934891"
           cy="138.53915"
           r="0.0011773397" />
        <circle
           id="path7951"
           style="fill:#000000;stroke:#000000;stroke-width:0.264583"
           cx="50.934891"
           cy="138.53915"
           r="0.0011773397" />
        <circle
           id="path7986"
           style="fill:#000000;stroke:#000000;stroke-width:0.264583"
           cx="52.384827"
           cy="136.01347"
           r="0.0011773397" />
        <circle
           id="path7988"
           style="fill:#000000;stroke:#000000;stroke-width:0.264583"
           cx="52.384827"
           cy="136.01347"
           r="0.0011773397" />
        <circle
           id="path7990"
           style="fill:#000000;stroke:#000000;stroke-width:0.264583"
           cx="45.602863"
           cy="131.19594"
           r="0.0011773397" />
        <circle
           id="path7992"
           style="fill:#000000;stroke:#000000;stroke-width:0.264583"
           cx="45.602863"
           cy="131.19594"
           r="0.0011773397" />
        <circle
           id="path7994"
           style="fill:#000000;stroke:#000000;stroke-width:0.264583"
           cx="37.979"
           cy="134.18935"
           r="0.0011773397" />
        <circle
           id="path7996"
           style="fill:#000000;stroke:#000000;stroke-width:0.264583"
           cx="37.979"
           cy="134.18935"
           r="0.0011773397" />
        <circle
           id="path7998"
           style="fill:#000000;stroke:#000000;stroke-width:0.264583"
           cx="37.370964"
           cy="137.88435"
           r="0.0011773397" />
        <circle
           id="path8000"
           style="fill:#000000;stroke:#000000;stroke-width:0.264583"
           cx="37.370964"
           cy="137.88435"
           r="0.0011773397" />
        <circle
           id="path8035"
           style="fill:#000000;stroke:#000000;stroke-width:0.264583"
           cx="52.338055"
           cy="135.96669"
           r="0.0011773397" />
        <circle
           id="path8037"
           style="fill:#000000;stroke:#000000;stroke-width:0.264583"
           cx="52.338055"
           cy="135.96669"
           r="0.0011773397" />
        <circle
           id="path8039"
           style="fill:#000000;stroke:#000000;stroke-width:0.264583"
           cx="48.409195"
           cy="137.46339"
           r="0.0011773397" />
        <circle
           id="path8041"
           style="fill:#000000;stroke:#000000;stroke-width:0.264583"
           cx="48.409195"
           cy="137.46339"
           r="0.0011773397" />
        <path
           style="fill:#000000;stroke:#000000;stroke-width:0.264583px;stroke-linecap:butt;stroke-linejoin:miter;stroke-opacity:1"
           d="m 52.431597,136.01346 -2.338607,0.79513 -0.514492,0.56126 1.169302,0.0935 0.04915,0.94393 1.868509,-1.27134 z"
           id="path8078" />
        <path
           style="fill:#000000;stroke:#000000;stroke-width:0.264583px;stroke-linecap:butt;stroke-linejoin:miter;stroke-opacity:1"
           d="m 49.85913,139.61492 -2.15152,0.93544 -1.262848,0.93544 -0.467723,0.93545 1.964431,-0.32741 2.057977,0.37418 -0.608039,-1.02899 0.841899,-0.70158 z"
           id="path8113" />
        <path
           style="fill:#000000;stroke:#000000;stroke-width:0.264583px;stroke-linecap:butt;stroke-linejoin:miter;stroke-opacity:1"
           d="m 51.496155,145.13403 -1.356392,1.44994 -0.467722,1.73057 1.216075,-0.74836 2.15152,0.23387 1.730571,-0.56127 -1.169305,-1.1693 z"
           id="path8214" />
        <path
           style="fill:#000000;stroke:#000000;stroke-width:0.264583px;stroke-linecap:butt;stroke-linejoin:miter;stroke-opacity:1"
           d="m 52.057421,151.44828 -3.320822,2.24506 2.19829,0.42095 2.853103,-0.74836 z"
           id="path8282" />
        <path
           style="fill:#000000;stroke:#000000;stroke-width:0.264583px;stroke-linecap:butt;stroke-linejoin:miter;stroke-opacity:1"
           d="m 52.66546,155.37714 -3.086962,1.54348 -0.795129,2.29184 1.824114,-0.79513 3.507915,0.23386 -0.608039,-2.33861 z"
           id="path8317" />
        <path
           style="fill:#000000;stroke:#000000;stroke-width:0.264583px;stroke-linecap:butt;stroke-linejoin:miter;stroke-opacity:1"
           d="m 56.360461,159.82049 -2.666013,2.29184 0.23386,1.26285 1.543482,-0.8419 2.478923,0.14031 z"
           id="path8352" />
      </g>
    </g>
  </g>
</svg>
