<?xml version="1.0" encoding="UTF-8" standalone="no"?>
<!-- Created with Inkscape (http://www.inkscape.org/) -->

<svg
   width="40mm"
   height="40mm"
   viewBox="0 0 40 40"
   version="1.1"
   id="svg5"
   inkscape:version="1.1.1 (3bf5ae0d25, 2021-09-20)"
   sodipodi:docname="loon.svg"
   xmlns:inkscape="http://www.inkscape.org/namespaces/inkscape"
   xmlns:sodipodi="http://sodipodi.sourceforge.net/DTD/sodipodi-0.dtd"
   xmlns="http://www.w3.org/2000/svg"
   xmlns:svg="http://www.w3.org/2000/svg">
  <sodipodi:namedview
     id="namedview7"
     pagecolor="#ffffff"
     bordercolor="#666666"
     borderopacity="1.0"
     inkscape:pageshadow="2"
     inkscape:pageopacity="0.0"
     inkscape:pagecheckerboard="0"
     inkscape:document-units="mm"
     showgrid="false"
     height="20mm"
     inkscape:zoom="8"
     inkscape:cx="100.4375"
     inkscape:cy="45.625"
     inkscape:window-width="1920"
     inkscape:window-height="992"
     inkscape:window-x="-8"
     inkscape:window-y="-8"
     inkscape:window-maximized="1"
     inkscape:current-layer="layer1" />
  <defs
     id="defs2" />
  <g
     inkscape:label="Layer 1"
     inkscape:groupmode="layer"
     id="layer1">
    <g
       id="g7097"
       transform="translate(-1.7528646,1.0252604)">
      <path
         style="fill:#0f0f0f;stroke-width:0.0759566"
         d="m 15.965469,24.124253 c -0.507577,-0.03251 -0.949431,-0.107934 -1.215305,-0.207457 -0.229768,-0.08601 -0.862107,-0.212012 -1.405196,-0.280011 -0.54309,-0.068 -1.15373,-0.177519 -1.356978,-0.243381 -0.314436,-0.101891 -0.453389,-0.106222 -0.931819,-0.02904 -0.309253,0.04989 -0.655666,0.07235 -0.769807,0.04991 l 0.969845,-0.588065 c -2.6e-5,-0.02624 -0.213676,-0.125689 -0.474777,-0.221 -0.2611,-0.09531 -0.7994427,-0.336539 -1.1963158,-0.536065 -0.7693034,-0.386763 -0.9817114,-0.449392 -2.1525623,-0.634683 -0.97698,-0.154611 -1.9191568,-0.389095 -2.48142,-0.617563 -0.2486492,-0.101035 -0.5635523,-0.1837 -0.6997849,-0.1837 -0.1362327,0 -0.5043517,-0.128109 -0.8180425,-0.284687 -1.192268,-0.451336 -0.153532,-0.981695 -0.153532,-0.981695 0,0 1.1330464,0.07871 0.30195,-0.293133 0.4743397,0.127047 0.529324,0.119099 1.5599324,-0.225488 0.4177612,-0.13968 0.9447699,-0.310476 1.1711304,-0.379547 0.519347,-0.158472 1.8400792,-0.81775 1.9828685,-0.9898 0.095398,-0.114947 0.08412,-0.148502 -0.098981,-0.294502 -0.1136554,-0.09063 -0.206646,-0.219742 -0.206646,-0.286927 0,-0.140961 0.4090414,-0.408568 1.4811533,-0.969016 0.4177611,-0.218386 0.8279269,-0.464758 0.9114789,-0.547495 0.151833,-0.15035 0.151801,-0.15052 -0.0623,-0.323529 l -0.214217,-0.173101 0.859848,-0.04957 c 0.879224,-0.05069 2.07622,-0.297838 2.77337,-0.572629 0.212525,-0.08377 0.773817,-0.38227 1.247317,-0.663334 1.071771,-0.636192 1.933103,-1.038156 2.573883,-1.201169 0.625177,-0.159045 1.7164,-0.247931 4.253568,-0.346475 1.511984,-0.05873 2.286907,-0.125184 3.11422,-0.267074 1.201459,-0.20606 1.89987,-0.232549 2.888342,-0.10955 0.707044,0.08798 1.933064,0.379249 2.376848,0.564673 0.399958,0.167113 0.520554,0.07233 0.800461,-0.629091 0.281931,-0.706498 0.291734,-0.841629 0.07772,-1.071347 -0.187375,-0.201142 -0.455809,-0.322313 -1.766894,-0.7975941 -0.529069,-0.191792 -1.128231,-0.432977 -1.331471,-0.535967 -0.203241,-0.10299 -0.575567,-0.220435 -0.827392,-0.260991 -0.251825,-0.04056 -0.567656,-0.130512 -0.701845,-0.199904 -0.630139,-0.325858 -1.56976,-0.493715 -4.667968,-0.833903 -3.79676,-0.416891 -3.983342,-0.454985 -3.790926,-0.773988 0.168364,-0.279126 1.376252,-0.717451 2.357702,-0.855575 0.297907,-0.04193 0.625833,-0.108236 0.728725,-0.147356 0.102892,-0.03912 0.935835,-0.195373 1.850984,-0.347231 2.812067,-0.466628 3.042855,-0.551764 4.137856,-1.526418 0.99998,-0.890075 2.147457,-1.39732 3.697912,-1.634667 1.128932,-0.17282 3.662128,0.218488 4.613974,0.712729 0.58744,0.305026 1.938217,1.654634 2.338101,2.336078 0.514674,0.877059 0.60945,1.337454 0.566904,2.753889 l -0.03694,1.229659 -0.432656,1.4051971 c -0.471932,1.532759 -0.585832,2.262875 -0.417125,2.673852 0.05655,0.137761 0.413829,0.660641 0.793952,1.161955 0.380122,0.501313 0.877016,1.178682 1.104208,1.505265 0.227193,0.326583 0.484314,0.690664 0.57138,0.809069 0.08707,0.118405 0.219616,0.499058 0.294555,0.845896 0.317737,1.470583 -0.155904,2.763341 -1.292407,3.527496 -1.141865,0.76776 -3.151509,1.097822 -6.684289,1.097822 -1.085952,0 -1.704885,-0.02757 -1.704885,-0.07596 0,-0.125321 -0.180872,-0.08773 -0.692092,0.143846 -0.615697,0.278898 -2.900155,0.935689 -3.978018,1.143695 -0.706895,0.136417 -1.289844,0.169356 -4.096592,0.231479 -3.510866,0.07771 -4.491013,0.07722 -5.741005,-0.0028 z m 15.78014,-1.819273 c 0.13586,-0.08284 0.348486,-0.262156 0.472502,-0.398488 l 0.225482,-0.247878 0.0022,0.275537 c 0.0035,0.437528 0.123276,0.48573 1.172936,0.472158 1.844336,-0.02385 3.470881,-0.360917 4.739393,-0.982149 0.881921,-0.431906 1.031376,-0.626936 0.965035,-1.259321 -0.04669,-0.445091 0.06171,-0.667564 0.2026,-0.415804 0.08551,0.152793 0.280104,0.162942 0.335908,0.01752 0.04734,-0.123375 -0.117818,-0.467473 -0.433647,-0.903462 -0.325164,-0.448876 -0.254853,-0.590677 0.139193,-0.280721 0.106219,0.08355 0.239787,0.151914 0.296818,0.151914 0.149887,0 0.126872,-0.359334 -0.04764,-0.743855 -0.115867,-0.255296 -0.22201,-0.358831 -0.488904,-0.476891 -0.388135,-0.17169 -0.48588,-0.279083 -0.314032,-0.345027 0.177528,-0.06812 0.143849,-0.226415 -0.08677,-0.40782 -0.180007,-0.141594 -0.193625,-0.180705 -0.109704,-0.315085 0.08572,-0.137264 0.05102,-0.204444 -0.32946,-0.637819 -0.661284,-0.753213 -1.190046,-1.250563 -1.499092,-1.410038 -0.174643,-0.09012 -0.383835,-0.303833 -0.546854,-0.558674 -0.254019,-0.397095 -0.287887,-0.420464 -0.894488,-0.61721 -0.904336,-0.293313 -2.301141,-0.27196 -2.678163,0.04094 -0.06538,0.05426 -0.229105,0.153955 -0.363823,0.221535 -0.21255,0.106625 -0.263056,0.192535 -0.38192,0.649643 -0.20652,0.794202 -0.516409,1.299408 -1.349286,2.199712 -0.416063,0.449748 -0.75648,0.869949 -0.75648,0.933781 0,0.17876 0.343264,0.06155 0.829089,-0.283096 0.229233,-0.16262 0.432169,-0.280291 0.450969,-0.261491 0.08066,0.08066 -2.311873,2.419506 -2.816966,2.75376 -0.241453,0.159786 -0.387421,0.396982 -0.244299,0.396982 0.135283,0 0.557707,-0.292022 0.992809,-0.686328 0.46001,-0.41688 0.712442,-0.553718 0.712442,-0.386203 0,0.03675 -0.153396,0.264361 -0.340879,0.505802 -0.396721,0.510899 -0.679897,1.058988 -0.607585,1.17599 0.07949,0.128614 0.21366,-0.02099 0.775216,-0.864365 0.514145,-0.772174 1.046256,-1.415941 1.170357,-1.415941 0.137184,0 0.05517,0.169359 -0.304236,0.628273 -0.203784,0.260204 -0.476916,0.641654 -0.606958,0.847667 -0.2164,0.342824 -0.226374,0.385692 -0.117675,0.505803 0.10938,0.120863 0.08832,0.164854 -0.266542,0.556703 -0.326156,0.360152 -0.483172,0.651731 -0.35096,0.651731 0.01889,0 0.265379,-0.205083 0.547752,-0.45574 0.282372,-0.250657 0.55502,-0.455739 0.605884,-0.455739 0.05812,0 0.01261,0.15835 -0.122475,0.426149 -0.147185,0.291796 -0.317364,0.493948 -0.539784,0.641196 -0.426036,0.282048 -0.493961,0.411004 -0.340142,0.645762 0.161209,0.246036 0.332308,0.234319 0.724243,-0.0496 0.297843,-0.215755 0.358453,-0.23122 0.726161,-0.185277 l 0.401195,0.05013 0.238341,-0.346419 c 0.131089,-0.190529 0.271759,-0.346417 0.3126,-0.346417 0.104338,0 -0.11619,0.403389 -0.392684,0.718299 -0.349098,0.397601 -0.177316,0.556201 0.2923,0.269872 z m -0.740737,-2.427774 c 0,-0.158299 0.182215,-0.459313 0.27804,-0.459313 0.129188,0 0.127653,0.0334 -0.01414,0.307598 -0.111224,0.215083 -0.263897,0.302856 -0.263897,0.151715 z m -8.584228,-0.987502 c 0.103816,-0.07977 0.163842,-0.169944 0.133392,-0.200395 -0.06725,-0.06726 -0.891823,0.108117 -0.891823,0.189677 0,0.206848 0.494077,0.21383 0.758431,0.01072 z m 6.479374,-0.238242 0.319874,-0.310693 -0.324618,0.173779 c -0.178539,0.09558 -0.380374,0.23539 -0.448522,0.310693 -0.114747,0.126793 -0.114396,0.136913 0.0047,0.136913 0.07076,0 0.272592,-0.139812 0.448522,-0.310692 z M 18.611835,18.474373 c 0.05715,-0.294804 -0.682897,-0.750869 -1.012925,-0.624226 -0.320352,0.122932 0.066,0.611471 0.578628,0.731667 0.326254,0.0765 0.402283,0.05769 0.434297,-0.107441 z m 2.697219,0.07224 c 0.09066,-0.236258 -0.394683,-0.471366 -0.527944,-0.255745 -0.05923,0.09583 0.227351,0.367482 0.387674,0.367482 0.05357,0 0.116688,-0.05028 0.14027,-0.111737 z m 2.274748,-0.110315 c 0.101462,-0.03857 0.207052,-0.128969 0.234645,-0.200875 0.0671,-0.174852 -0.156486,-0.412595 -0.388021,-0.412595 -0.447249,0 -0.631821,0.33865 -0.308137,0.565367 0.197505,0.138338 0.218439,0.14052 0.461513,0.0481 z m 2.942543,-0.0473 c 0.0807,-0.09724 0.0721,-0.15142 -0.05002,-0.314983 -0.211586,-0.283397 -0.440187,-0.349468 -0.642451,-0.185684 -0.115284,0.09335 -0.150355,0.180797 -0.115965,0.289148 0.09189,0.289509 0.62742,0.429626 0.808433,0.211519 z m -1.294173,-0.139132 c 0,-0.253798 -0.174628,-0.374869 -0.452628,-0.31381 -0.429707,0.09438 -0.235333,0.486794 0.243747,0.492091 0.169948,0.0019 0.208881,-0.03135 0.208881,-0.178281 z m 3.55097,0.02951 c 0.232416,-0.141707 0.307736,-0.29442 0.198894,-0.403262 -0.09204,-0.09204 -0.711601,0.336003 -0.711601,0.491626 0,0.111019 0.258871,0.0664 0.512707,-0.08836 z m -6.551255,-0.152745 c 0,-0.164729 -0.296334,-0.142037 -0.328533,0.02516 -0.02077,0.107862 0.0131,0.133443 0.150874,0.113934 0.09771,-0.01384 0.177659,-0.07643 0.177659,-0.139092 z m 5.128934,-0.322635 c -0.167542,-0.315821 -0.169402,-0.338306 -0.04748,-0.574069 0.112885,-0.218295 0.114022,-0.250311 0.0103,-0.290114 -0.168244,-0.06456 -0.317265,0.01131 -0.464961,0.236721 -0.184166,0.281071 -0.0398,0.749125 0.293597,0.951875 0.34119,0.20749 0.423117,0.08005 0.208551,-0.324413 z m -7.438489,0.24287 c 0.205227,-0.109834 0.110249,-0.224059 -0.186304,-0.224059 -0.233663,0 -0.428469,0.110509 -0.428469,0.243061 0,0.08815 0.43996,0.07456 0.614773,-0.019 z m 1.132228,-0.409468 c 0,-0.0602 -0.03582,-0.131589 -0.07959,-0.158644 -0.128871,-0.07965 -0.301726,0.02379 -0.252803,0.151286 0.05671,0.147799 0.332397,0.153901 0.332397,0.0074 z m 1.122448,-0.0088 c 0.222877,-0.156109 0.217876,-0.337497 -0.0093,-0.337497 -0.238788,0 -0.461546,0.241431 -0.337349,0.365628 0.116093,0.116093 0.143976,0.11383 0.346654,-0.02813 z m 2.720978,-0.0918 c 0.04597,-0.03069 0.126303,-0.136876 0.178526,-0.235961 0.08238,-0.156295 0.07368,-0.201428 -0.06564,-0.34075 -0.124003,-0.124003 -0.189484,-0.142371 -0.287387,-0.08062 -0.243062,0.153321 -0.287226,0.306868 -0.148955,0.517895 0.136391,0.208158 0.18752,0.230198 0.323456,0.139432 z M 23.723615,17.37245 c 0.221826,-0.181256 0.11426,-0.333281 -0.209553,-0.296167 -0.238603,0.02735 -0.345275,0.263929 -0.169289,0.375456 0.145079,0.09194 0.177622,0.08513 0.378842,-0.07929 z m -5.44913,-0.105096 c 0.06793,-0.111859 0.04998,-0.165282 -0.0957,-0.284837 -0.315243,-0.258701 -0.938625,-0.118054 -0.822144,0.185491 0.107261,0.279517 0.765176,0.350729 0.917844,0.09935 z m 1.599945,-0.02228 c 0.163589,-0.163589 0.04126,-0.307319 -0.351584,-0.413102 -0.361706,-0.0974 -0.59507,-0.03618 -0.59507,0.156113 0,0.324668 0.691306,0.512337 0.946654,0.256989 z m 6.405943,0.03083 c 0.124518,-0.124518 0.114848,-0.360264 -0.01685,-0.410802 -0.249677,-0.09581 -0.553105,0.271266 -0.373059,0.451312 0.08062,0.08061 0.290603,0.0588 0.389911,-0.04051 z m 3.281324,-0.06076 c 0.182247,-0.182247 0.195446,-0.303826 0.03298,-0.303826 -0.229784,0 -0.56015,0.233782 -0.563518,0.398772 -0.0024,0.119524 0.385488,0.0501 0.530533,-0.09495 z m -1.60933,-0.07121 c 0.01899,-0.05697 -0.0095,-0.08545 -0.06646,-0.06646 -0.05483,0.01828 -0.114647,0.07809 -0.132924,0.132924 -0.01899,0.05697 0.0095,0.08545 0.06646,0.06646 0.05483,-0.01828 0.114646,-0.07809 0.132924,-0.132924 z m 0.735829,-0.04273 c 0,-0.07659 -0.03852,-0.152091 -0.08559,-0.167783 -0.100042,-0.03335 -0.201575,0.185781 -0.135568,0.292582 0.07074,0.114458 0.221155,0.02958 0.221155,-0.124799 z m -12.040049,-0.03624 c 0.06383,-0.119276 0.04876,-0.181786 -0.07328,-0.303826 -0.175045,-0.175045 -0.310594,-0.194202 -0.442289,-0.06251 -0.132209,0.132209 -0.111743,0.345048 0.04178,0.434464 0.208079,0.121195 0.386179,0.09558 0.473797,-0.06813 z m 4.710239,-0.265955 c 0,-0.129255 -0.288958,-0.343439 -0.463339,-0.343439 -0.195304,0 -0.341002,0.215862 -0.246655,0.365433 0.16105,0.255318 0.709994,0.238313 0.709994,-0.02199 z m 1.208627,-0.06954 c 0.176,-0.212068 -0.225253,-0.430968 -0.556783,-0.303747 -0.142847,0.05482 -0.160379,0.304784 -0.0252,0.35933 0.190509,0.07687 0.496294,0.04767 0.581985,-0.05558 z m -7.13324,-0.124366 c 0,-0.174012 -0.165993,-0.265483 -0.352143,-0.194051 -0.113248,0.04346 -0.112203,0.06103 0.01177,0.198018 0.175805,0.194262 0.340371,0.192344 0.340371,-0.004 z m 2.84776,-0.163071 c 0.250954,-0.114343 0.218336,-0.283766 -0.09225,-0.47916 -0.31245,-0.196566 -0.340906,-0.454068 -0.0439,-0.397292 0.261301,0.04995 0.554529,-0.0599 0.554529,-0.207746 0,-0.162986 -0.34345,-0.367204 -0.522165,-0.310483 -0.245035,0.07777 -0.61446,0.508005 -0.70999,0.826857 -0.0844,0.281692 -0.07801,0.3071 0.120004,0.477424 0.233236,0.200622 0.403247,0.222775 0.693778,0.0904 z m 1.71686,-0.03314 c 0.08726,-0.105141 0.07655,-0.143075 -0.07507,-0.265848 -0.20428,-0.165416 -0.485081,-0.186735 -0.602118,-0.04571 -0.09386,0.113092 -0.03799,0.221951 0.176246,0.343439 0.214158,0.12144 0.382597,0.110722 0.500943,-0.03188 z m 4.060957,0.0394 c 0.09243,-0.149556 -0.175348,-0.320566 -0.513063,-0.327654 -0.24019,-0.005 -0.326964,0.02278 -0.326964,0.10483 0,0.22881 0.718532,0.419406 0.840027,0.222824 z m 1.400692,-0.09958 c 0,-0.155093 -0.172919,-0.272913 -0.400544,-0.272913 -0.165759,0 -0.21218,0.03151 -0.193017,0.131016 0.04956,0.257328 0.593561,0.387377 0.593561,0.141897 z m 4.443459,-0.123934 c 0,-0.162827 -0.155742,-0.163319 -0.349295,-0.0011 -0.154736,0.129682 -0.165188,0.164159 -0.06891,0.227319 0.131996,0.0866 0.418208,-0.06822 0.418208,-0.226214 z m -2.131091,0.06199 c 0.176472,-0.251949 0.151597,-0.438838 -0.05841,-0.438838 -0.226647,0 -0.527688,0.313336 -0.463001,0.481909 0.06936,0.180747 0.382776,0.154857 0.52141,-0.04307 z m 2.884432,-0.27464 c 0.28044,-0.553423 0.499943,-1.260874 0.499943,-1.611307 0,-0.423825 -0.144805,-0.359922 -0.340269,0.150164 -0.158569,0.413804 -0.287382,0.506246 -0.329634,0.236561 -0.06033,-0.385076 -0.469446,-0.0015 -0.469446,0.440107 0,0.253034 0.0045,0.256554 0.265848,0.207527 0.227658,-0.04271 0.265848,-0.02925 0.265848,0.09371 0,0.07897 -0.06836,0.205448 -0.151913,0.281062 -0.180394,0.163255 -0.208401,0.569675 -0.03926,0.569675 0.06196,0 0.196457,-0.165374 0.298881,-0.367498 z M 28.9811,15.958388 c 0.194,-0.14813 0.352727,-0.282056 0.352727,-0.297614 0,-0.01556 0.02075,-0.08235 0.04611,-0.148433 0.09353,-0.243746 -0.271768,-0.119706 -0.614446,0.208636 -0.56016,0.536728 -0.403009,0.709765 0.215614,0.237411 z m -15.750067,-10e-4 c 0,-0.0602 -0.05127,-0.109452 -0.113935,-0.109452 -0.114408,0 -0.156143,0.160343 -0.06536,0.251124 0.07089,0.07089 0.179297,-0.01478 0.179297,-0.141672 z m 3.494794,0.05709 c 0.161183,-0.130518 0.163015,-0.143801 0.03718,-0.269634 -0.191196,-0.191196 -0.822671,-0.147181 -0.862084,0.06009 -0.06072,0.319344 0.510203,0.464372 0.824902,0.209544 z m 4.678823,0.02478 c 0.489773,-0.204639 0.166368,-0.527158 -0.388868,-0.387802 -0.232653,0.05839 -0.309861,0.279683 -0.14073,0.403355 0.167455,0.122445 0.201731,0.121439 0.529598,-0.01555 z m 5.481665,-0.0817 c 0.189312,-0.1326 0.228601,-0.413455 0.05784,-0.413455 -0.134612,0 -0.42072,0.293836 -0.42072,0.432084 0,0.133796 0.156753,0.125748 0.362881,-0.01863 z M 15.285024,15.806143 c 0.08045,-0.09694 0.07695,-0.13852 -0.01982,-0.235284 -0.09316,-0.09316 -0.150887,-0.09969 -0.278313,-0.03149 -0.158837,0.08501 -0.20849,0.235534 -0.110136,0.333887 0.08978,0.08978 0.307799,0.05394 0.408265,-0.06711 z m 7.472511,-0.04298 c 0.235885,-0.185548 0.250457,-0.54202 0.02391,-0.584987 -0.09557,-0.01813 -0.175844,0.06793 -0.279662,0.299815 -0.20839,0.465455 -0.111208,0.573819 0.255748,0.285172 z m -2.533504,-0.06982 c 0.189537,-0.101437 0.185299,-0.183524 -0.01932,-0.374151 -0.194663,-0.181356 -0.6086,-0.205582 -0.743124,-0.04349 -0.13555,0.163328 -0.06446,0.283799 0.230336,0.390314 0.33351,0.120504 0.355858,0.121652 0.532104,0.02733 z m 4.096493,0.0044 c 0.09941,-0.06284 0.09538,-0.106053 -0.03192,-0.342439 -0.139868,-0.259718 -0.409005,-0.407843 -0.565406,-0.311183 -0.126747,0.07833 -0.183389,0.496727 -0.08354,0.617044 0.103324,0.124497 0.50744,0.146208 0.680859,0.03658 z m 1.502399,-0.195909 c 0.193143,-0.135284 0.223898,-0.397085 0.05429,-0.462169 -0.156787,-0.06016 -0.493131,0.172848 -0.493131,0.341632 0,0.263282 0.168833,0.309656 0.438838,0.120537 z M 14.104533,15.31625 c 0.0818,-0.132346 -0.03944,-0.245255 -0.157839,-0.146995 -0.05849,0.04854 -0.0876,0.118559 -0.06471,0.155601 0.05541,0.08965 0.164428,0.08544 0.22255,-0.0086 z m 13.524361,-0.0066 c 0.07828,-0.126652 -0.09777,-0.271887 -0.202555,-0.167105 -0.08765,0.08765 -0.03279,0.249677 0.08453,0.249677 0.03684,0 0.08996,-0.03716 0.118025,-0.08257 z m -5.707046,-0.03949 c 0.160919,-0.06175 0.152911,-0.311164 -0.01278,-0.397987 -0.186815,-0.09789 -0.474729,0.02792 -0.474729,0.207445 0,0.200502 0.228657,0.289872 0.487505,0.190542 z m -8.735006,-0.07598 c 0.134944,-0.05178 0.160245,-0.223974 0.04351,-0.29612 -0.13425,-0.08297 -0.379103,0.04325 -0.379103,0.195428 0,0.148933 0.11778,0.184272 0.335592,0.100689 z m 3.908719,-0.02252 c 0.155021,-0.09819 0.04176,-0.219362 -0.301031,-0.322065 -0.26435,-0.0792 -0.320787,-0.07393 -0.433561,0.04053 -0.122283,0.124102 -0.121271,0.137792 0.01779,0.240873 0.163459,0.121165 0.554667,0.143359 0.716802,0.04067 z m 8.125469,-0.264049 c 0.05717,-0.119286 0.121749,-0.349587 0.143504,-0.511778 0.03222,-0.240196 0.01612,-0.294894 -0.08677,-0.294894 -0.06948,0 -0.144793,0.04814 -0.167372,0.10698 -0.0686,0.178778 -0.464925,0.308791 -0.599879,0.196789 -0.166458,-0.138148 -0.140088,-0.272117 0.08904,-0.452348 0.152316,-0.119812 0.181236,-0.181272 0.115995,-0.246513 -0.204392,-0.204392 -0.760819,0.307528 -0.664415,0.611269 0.07137,0.224853 0.786708,0.861155 0.93584,0.832435 0.07156,-0.01378 0.176884,-0.122654 0.234056,-0.24194 z m -4.420722,-0.08791 c 0.125291,-0.326502 -0.575062,-0.562202 -0.850899,-0.286365 -0.120786,0.120786 -0.118306,0.136877 0.04097,0.265848 0.214059,0.173335 0.746118,0.186812 0.809932,0.02052 z m 6.089202,-0.09807 c 0.01335,-0.09073 -0.0081,-0.164955 -0.04767,-0.164955 -0.116509,0 -0.259953,0.214062 -0.204054,0.304508 0.07836,0.126783 0.224448,0.04579 0.25172,-0.139555 z m -11.177419,0.01983 c 0.06191,-0.161342 -0.07241,-0.279731 -0.317381,-0.279731 -0.229514,0 -0.460608,0.190281 -0.383203,0.315526 0.08197,0.132636 0.64703,0.103765 0.700584,-0.0358 z m 16.052703,-0.278408 c 0.210599,-0.48955 0.23756,-0.840411 0.06728,-0.875587 -0.0768,-0.01586 -0.152182,0.05371 -0.202749,0.18714 -0.104015,0.274455 -0.176218,1.085896 -0.09662,1.085896 0.03361,0 0.138055,-0.178852 0.232092,-0.397449 z m -8.298577,0.188566 c 0.01854,-0.05569 -0.03381,-0.09495 -0.12663,-0.09495 -0.0933,0 -0.158243,0.04904 -0.158243,0.119504 0,0.139599 0.237018,0.119166 0.284873,-0.02456 z m 6.006148,-0.0445 c 0.01353,-0.06977 -0.03067,-0.148069 -0.09822,-0.173992 -0.165091,-0.06335 -0.216717,0.0027 -0.154741,0.197962 0.05807,0.182978 0.215724,0.168039 0.252963,-0.02397 z m -10.395437,-0.0091 c 0.05049,-0.06083 0.07033,-0.145343 0.04409,-0.187797 -0.07035,-0.113822 -0.617725,-0.261538 -0.762828,-0.205857 -0.201372,0.07727 -0.09822,0.292923 0.189803,0.396814 0.353961,0.127673 0.420684,0.127274 0.528935,-0.0032 z m -1.611316,-0.238133 c 0.184748,-0.119497 0.229745,-0.373474 0.07596,-0.428721 -0.157044,-0.05641 -0.553857,0.08137 -0.70027,0.243152 -0.115022,0.127099 -0.121081,0.171094 -0.03744,0.271879 0.11099,0.133733 0.374739,0.09933 0.66175,-0.08631 z m 5.123226,0.01738 c 0.06993,-0.109216 -0.153996,-0.352291 -0.324533,-0.352291 -0.235821,0 -0.374223,0.08819 -0.374223,0.238444 0,0.259918 0.54806,0.349213 0.698756,0.113847 z m 5.225857,-0.01287 c 0,-0.158619 -0.204703,-0.225336 -0.341935,-0.111443 -0.147434,0.12236 -0.075,0.227761 0.156527,0.227761 0.115859,0 0.185408,-0.04363 0.185408,-0.116318 z M 16.193339,13.956383 c 0.111254,-0.08067 0.189892,-0.212936 0.189892,-0.319387 0,-0.158381 -0.03309,-0.180103 -0.257898,-0.169294 -0.291952,0.01404 -0.640459,0.2407 -0.680044,0.442287 -0.05761,0.293378 0.370797,0.319947 0.74805,0.04639 z m 7.338105,0.131128 c 0.03372,-0.05455 -0.09032,-0.216607 -0.318333,-0.4159 l -0.373571,-0.326522 0.332237,-0.288568 c 0.269124,-0.23375 0.312411,-0.304587 0.227869,-0.372896 -0.06433,-0.05198 -0.168232,-0.06011 -0.270841,-0.02121 -0.402523,0.152627 -0.577689,0.891021 -0.287812,1.213239 0.24195,0.268946 0.589297,0.375522 0.690451,0.211852 z m -2.195933,-0.112483 c 0.05754,-0.149954 -0.291535,-0.481748 -0.506844,-0.481748 -0.43551,0 -0.517657,0.293816 -0.134901,0.482501 0.320147,0.157821 0.581013,0.157515 0.641745,-7.59e-4 z M 19.5381,13.831865 c 0.120269,-0.144915 0.0027,-0.289314 -0.203484,-0.249986 -0.200087,0.03816 -0.237399,0.36714 -0.04164,0.36714 0.08134,0 0.191649,-0.05272 0.245125,-0.117154 z m 8.007503,-0.105467 c 0.02404,-0.03889 0.0073,-0.09319 -0.03713,-0.120665 -0.112412,-0.06947 -0.321452,0.02157 -0.263781,0.11488 0.05937,0.09606 0.242941,0.09959 0.300914,0.0058 z m -9.421584,-0.12731 c 0.188659,-0.0724 0.146068,-0.324278 -0.06374,-0.376935 -0.266427,-0.06687 -0.456272,-0.01234 -0.485503,0.139436 -0.03485,0.180933 0.309088,0.329654 0.549239,0.237499 z m 7.838855,-0.06419 c 0.02328,-0.06066 0.02111,-0.144622 -0.0048,-0.186575 -0.07339,-0.118753 -0.270146,-0.0073 -0.270146,0.153086 0,0.168464 0.213203,0.194432 0.274963,0.03349 z m -1.912361,-0.188743 c 0.140505,-0.155255 0.104825,-0.308612 -0.0718,-0.308612 -0.124987,0 -0.352269,0.301117 -0.296001,0.392161 0.06647,0.107545 0.22809,0.07083 0.367801,-0.08355 z m -1.81657,-0.0081 c 0.07539,-0.121979 -0.113274,-0.300499 -0.317567,-0.300499 -0.211142,0 -0.326984,0.211109 -0.170286,0.310328 0.145569,0.09217 0.428333,0.08648 0.487853,-0.0098 z m 5.895972,-0.03465 c 0,-0.03969 -0.03674,-0.08441 -0.08165,-0.09938 -0.04491,-0.01497 -0.08165,0.02975 -0.08165,0.09938 0,0.06963 0.03674,0.114346 0.08165,0.09938 0.04491,-0.01497 0.08165,-0.05969 0.08165,-0.09938 z m -11.221201,-0.08408 c 0.169918,-0.0652 0.149537,-0.257721 -0.02728,-0.257721 -0.166926,0 -0.264505,0.114395 -0.194374,0.22787 0.05507,0.0891 0.06409,0.09031 0.221657,0.02985 z m 3.238418,-0.148667 c 0.09579,-0.115422 0.03559,-0.260967 -0.107951,-0.260967 -0.172714,0 -0.378123,0.201731 -0.330849,0.324925 0.05197,0.135435 0.303779,0.09873 0.4388,-0.06396 z m 5.125074,0.115489 c 0.06974,-0.112841 -0.106166,-0.299502 -0.235479,-0.24988 -0.133676,0.0513 -0.142138,0.226926 -0.01344,0.278859 0.150947,0.06091 0.19665,0.05559 0.248915,-0.02898 z m 1.728318,-0.03465 c 0.0091,-0.04178 -0.09446,-0.08667 -0.230232,-0.09976 -0.233409,-0.0225 -0.313003,0.04627 -0.192733,0.166542 0.07629,0.07629 0.402935,0.02471 0.422965,-0.06678 z m -8.262639,-0.379782 c 0,-0.11675 -0.04358,-0.147013 -0.188277,-0.130742 -0.103552,0.01164 -0.218497,0.05139 -0.255432,0.08833 -0.113662,0.113662 0.02933,0.24228 0.242001,0.217669 0.143289,-0.01658 0.201708,-0.06734 0.201708,-0.175255 z m 5.962591,-0.265848 c 0,-0.04178 -0.03216,-0.07596 -0.07147,-0.07596 -0.03931,0 -0.0926,0.03418 -0.118418,0.07596 -0.02582,0.04178 0.0063,0.07596 0.07147,0.07596 0.06513,0 0.118418,-0.03418 0.118418,-0.07596 z m 12.25886,-0.196104 c 0.07793,-0.203072 0.05126,-0.411549 -0.05264,-0.411549 -0.152163,0 -0.28104,0.163709 -0.28104,0.356996 0,0.204966 0.259668,0.24742 0.333678,0.05455 z m -4.9654,-0.221658 c 0.145552,-0.371853 0.231966,-0.535088 0.419352,-0.792152 0.203202,-0.278762 0.148901,-0.498505 -0.07688,-0.311122 -0.141718,0.117616 -0.571969,0.99855 -0.571969,1.171101 0,0.187877 0.146339,0.144627 0.229499,-0.06783 z m 0.885348,-0.13836 c 0.198294,-0.252584 0.514973,-0.953597 0.456979,-1.011591 -0.07406,-0.07407 -0.24656,0.09623 -0.504262,0.497819 -0.334712,0.521604 -0.295276,0.950117 0.04728,0.513772 z m 3.480311,-0.05085 c 0.05633,-0.177485 -0.0054,-0.304506 -0.148054,-0.304506 -0.124448,0 -0.204143,0.187801 -0.145047,0.341804 0.06249,0.162856 0.236606,0.140699 0.293101,-0.0373 z m -2.363572,-0.379784 c 0.26627,-0.665475 0.05589,-0.829317 -0.325513,-0.253505 -0.256833,0.387746 -0.279437,0.481861 -0.147435,0.613863 0.136553,0.136552 0.334459,-0.01424 0.472948,-0.360358 z m 1.604193,0.275871 c 0.139097,-0.212286 0.07887,-0.428463 -0.119361,-0.428463 -0.187161,0 -0.296943,0.222093 -0.215887,0.43675 0.08278,0.219231 0.187876,0.216633 0.335248,-0.0083 z m -0.810947,-0.192934 c 0.267185,-0.475391 0.03743,-0.748971 -0.284882,-0.33922 -0.154366,0.196243 -0.207012,0.484525 -0.106788,0.584749 0.112113,0.112113 0.233395,0.03608 0.39167,-0.245529 z"
         id="path3624"
         sodipodi:nodetypes="cssssccssssscccsssssssscssssssssscsssssscssssssscsssssssssssscccscssssssssssssssssssssssssssssssssssssssssssssscsssccssssssssssccsssccsssssssssssssssssssssscssssssssssssssssssssssscssscssccssscssssssssssssssssssccsscscccsssssscssscsssccsssssscsssccscccssssssccsssssssssssssssscsssssssscssssssssscscsccsssssssssssssssssssssssssssssssssssssssssssssssssscssssssssssssscssscscsccssssssssssssssssscssscssccscsssscssccsccsscsssccssscsssssscssccsscccccsscscccssccscssscssccscssscssccscssscssccscssscssccssssssssssssssssscsssssssssssssssssssssssssssssscsscssccsssss" />
      <path
         style="fill:#ff0000;fill-opacity:0.668998;stroke:#000000;stroke-width:0.188976;stroke-opacity:0.56"
         id="path6147"
         sodipodi:type="arc"
         sodipodi:cx="29.060076"
         sodipodi:cy="4.5322018"
         sodipodi:rx="0.46302083"
         sodipodi:ry="0.44648436"
         sodipodi:start="0"
         sodipodi:end="6.2699994"
         sodipodi:arc-type="arc"
         d="M 29.523097,4.5322018 A 0.46302083,0.44648436 0 0 1 29.061602,4.9786837 0.46302083,0.44648436 0 0 1 28.597065,4.5351454 0.46302083,0.44648436 0 0 1 29.055497,4.0857392 0.46302083,0.44648436 0 0 1 29.523056,4.5263146"
         sodipodi:open="true"
         inkscape:transform-center-x="3.7041666"
         inkscape:transform-center-y="-2.4143229" />
    </g>
  </g>
</svg>
