<?xml version="1.0" encoding="UTF-8" standalone="no"?>
<!-- Created with Inkscape (http://www.inkscape.org/) -->

<svg
   width="10mm"
   height="10mm"
   viewBox="0 0 10 10"
   version="1.1"
   id="svg5"
   inkscape:version="1.1.1 (3bf5ae0d25, 2021-09-20)"
   sodipodi:docname="lynx.svg"
   xmlns:inkscape="http://www.inkscape.org/namespaces/inkscape"
   xmlns:sodipodi="http://sodipodi.sourceforge.net/DTD/sodipodi-0.dtd"
   xmlns="http://www.w3.org/2000/svg"
   xmlns:svg="http://www.w3.org/2000/svg">
  <sodipodi:namedview
     id="namedview7"
     pagecolor="#ffffff"
     bordercolor="#666666"
     borderopacity="1.0"
     inkscape:pageshadow="2"
     inkscape:pageopacity="0.0"
     inkscape:pagecheckerboard="0"
     inkscape:document-units="mm"
     showgrid="false"
     height="10mm"
     inkscape:zoom="11.313709"
     inkscape:cx="17.014756"
     inkscape:cy="31.908192"
     inkscape:window-width="1904"
     inkscape:window-height="976"
     inkscape:window-x="0"
     inkscape:window-y="0"
     inkscape:window-maximized="1"
     inkscape:current-layer="layer1" />
  <defs
     id="defs2" />
  <g
     inkscape:label="Layer 1"
     inkscape:groupmode="layer"
     id="layer1">
    <g
       id="g17107"
       transform="translate(0.46772167,0.60803817)">
      <path
         style="fill:#000000;stroke:#000000;stroke-width:0.05;stroke-linecap:butt;stroke-linejoin:miter;stroke-miterlimit:4;stroke-dasharray:none;stroke-opacity:1"
         d="m 0.84297067,4.4548856 0.12858874,0.031433 0.14001889,-0.03429 0.074296,-0.068581 0.05715,-0.080011 0.082868,-0.1228738 0.040005,-0.1314463 0.065723,-0.1800241 0.028575,-0.2371749 0.014288,-0.1428763 0.014288,-0.1600216 V 3.1575682 c 0,0 0.00857,0.1000132 0.020003,0.120016 0.01143,0.020002 0.035043,0.2131309 0.035043,0.2131309 l -0.026411,0.1465711 -0.01149,0.1689408 0.00572,0.068581 0.1114438,0.1657368 0.1143011,0.1600213 0.102871,0.1114438 0.1171586,0.1514488 c 0,0 0.090012,0.1900258 0.092869,0.2014558 0.00286,0.01143 0.052864,0.205742 0.052864,0.205742 l 0.040006,0.1757379 0.03429,0.2457474 -0.02286,0.25432 -0.051435,0.1785955 -0.074295,0.1243022 -0.068581,0.1571641 -0.025718,0.1228739 0.020003,0.054293 0.051435,0.1057285 0.077153,0.1485914 0.074296,0.1114435 c 0,0 0.028575,0.042863 0.082868,0.1085861 0.054293,0.065723 0.1000135,0.1171585 0.1000135,0.1171585 l 0.097156,0.1200164 0.094298,0.088583 0.054293,0.085726 0.097156,0.068581 0.065723,0.091441 0.02286,0.02286 0.2228871,0.020002 0.120016,0.00286 0.1314463,-0.00572 0.080011,-0.00286 0.014632,-0.042535 0.034487,-0.074624 0.012694,-0.048775 -0.018082,-0.061141 -0.0404,-0.054424 -0.031909,-0.029971 -0.00572,-0.025718 0.040005,-0.014288 0.060008,0.037148 0.057151,0.037148 0.014288,0.048578 -0.00286,0.062866 -0.01143,0.051436 -0.025717,0.071438 -0.00571,0.031433 0.062866,-0.025717 0.057151,-0.03429 0.05715,-0.020003 v 0 l 0.010576,-0.054228 -0.00598,-0.054491 -0.015941,-0.06114 -0.041336,-0.059877 -0.047116,-0.038412 -0.047724,-0.051566 0.018938,-0.028904 0.045721,0.00857 0.060205,0.02552 0.05004,0.04572 0.034291,0.055688 0.025783,0.071504 0.00425,0.071504 -0.013018,0.053898 0.035617,-0.015216 0.020002,-0.074296 L 3.7147851,6.9580807 3.6433471,6.8694974 3.5376186,6.7923441 3.3690245,6.7751991 3.2804409,6.8094896 3.2061454,6.8466374 3.1575674,6.8437799 2.9489677,6.655183 2.8946747,6.552312 2.8375242,6.4208657 2.8346667,6.2694168 2.8603842,6.086535 2.9232497,5.9379437 2.9861152,5.8579329 3.060411,5.7550618 3.1261343,5.6464758 3.1975724,5.57218 3.3261612,5.4293036 3.4395658,5.15143 3.5081466,5.0142687 3.5926887,4.8720859 C 3.6031663,4.8282704 3.6540554,4.7627047 3.664533,4.728516 L 3.7114372,4.573947 3.7474013,4.3945319 3.7251749,4.2126903 3.6320007,4.0113359 3.550029,3.8119431 3.4976128,3.6233462 l 0.028575,-0.062866 0.088787,0.1640625 0.073949,0.1364681 0.07597,0.1697777 0.046413,0.1616955 0.037351,0.2114571 -0.027883,0.1738784 -0.101257,0.255444 -0.1076056,0.2074159 -0.074296,0.1085861 0.2571774,0.04572 0.1200163,-0.017145 0.1771666,-0.02286 0.1885969,-0.051436 0.2686076,-0.028575 0.2000269,-0.017145 0.2057421,-0.051435 0.1714516,-0.04572 0.1600215,-0.051436 0.1200161,-0.028575 0.1085861,-0.062866 0.05715,0.2000268 0.036944,0.1993117 -0.00404,0.1091112 0.012123,0.1252758 0.016163,0.1576051 0.032329,0.1899341 0.040411,0.1333582 -0.00808,0.1091112 -0.044453,0.048494 0.024246,0.072741 0.052535,0.056576 0.052535,0.032329 v 0.1373992 0.080823 l 0.040411,0.1131522 0.044453,0.1373995 0.044453,0.00808 0.1010288,-0.032329 0.0687,-0.020206 0.024247,-0.012123 L 5.958191,6.3069086 5.8676688,6.0290609 5.7743545,5.7184648 5.7303891,5.5931434 5.6944161,5.4479986 5.6695447,5.2439069 5.7182297,5.0756923 5.7010348,4.8266024 5.7179731,4.6109596 5.8484078,4.3383969 6.0246702,4.0513913 6.1176172,3.8947308 6.2054045,3.7355775 6.2319584,3.6062304 6.227414,3.4269013 6.255702,3.4066953 6.2959379,3.5054888 6.3042777,3.6462416 6.2750451,3.7800303 6.203165,3.8916346 6.098095,4.0734867 6.009189,4.2270506 5.8394607,4.5058902 5.776865,4.736236 5.7182297,5.0756923 5.805585,5.5294201 6.1090534,6.4829434 6.1629253,6.6320546 c 0,0 0.018056,0.09286 0.034221,0.121148 0.016163,0.028288 0.082802,0.096557 0.082802,0.096557 l 0.10507,0.092947 0.0687,0.060617 0.1333582,0.028288 0.1042334,-0.017291 0.030077,-0.073868 0.014005,-0.1083568 -0.015112,-0.057376 -0.038085,-0.054464 0.042281,-0.032144 0.044453,0.052535 0.028288,0.056576 0.020206,0.088905 -0.020206,0.052535 -0.024246,0.0687 0.088906,-0.012123 0.1050701,-0.03637 0.028288,-0.060617 -0.033261,-0.1679402 -0.034396,-0.075284 -0.040609,-0.052442 0.00723,-0.035709 0.042571,0.00367 0.038252,0.032703 0.040411,0.064658 0.010523,0.037218 0.015224,0.082705 0.01871,0.033642 v 0 0 L 7.0841412,6.809351 7.0800994,6.6517442 7.0679762,6.5143448 6.9709884,6.4092748 6.8133835,6.3607809 6.6921488,6.3688639 6.6072845,6.1466004 6.5668731,5.9364604 6.550707,5.7141969 6.5345436,5.5080979 6.5466668,5.2332995 V 5.0474064 L 6.6396134,4.9261717 6.8214652,4.7766491 6.9305764,4.6190439 7.0316052,4.5301386 7.2579099,4.3725335 7.338733,4.2634225 7.4640087,4.1017761 7.6054491,3.8714304 7.7266839,3.6653316 l 0.052535,-0.1091112 0.080824,0.00808 0.074761,-0.00808 0.062638,-0.024247 0.072741,-0.1131523 0.064659,-0.080823 0.052535,-0.088906 0.0687,-0.1010288 0.03637,-0.088905 0.012126,-0.062638 0.032331,-0.0687 0.1252758,-0.082844 0.078802,-0.054555 0.034349,-0.090926 0.020206,-0.080823 -0.012123,-0.080823 -0.00404,-0.084864 -0.028287,-0.1757903 -0.040411,-0.088905 -0.00404,-0.074761 -0.00404,-0.1131523 0.00808,-0.084864 0.020206,-0.076782 -0.00404,-0.052535 0.012123,-0.076782 -0.00404,-0.040412 -0.032329,-0.084864 -0.012123,-0.03637 0.00808,-0.060617 0.1212345,-0.1737697 0.10507,-0.072741 0.072741,-0.060617 -0.00404,-0.020206 h -0.040411 l -0.088905,0.052535 -0.0687,0.052535 -0.056576,0.060617 -0.072741,0.096988 -0.00808,0.024247 -0.056576,-0.00808 -0.028288,0.040412 -0.072741,0.060617 -0.084864,0.1293169 -0.064659,0.052535 -0.0687,0.056576 L 7.9489595,1.7942814 7.831766,1.7700344 7.726696,1.7417464 7.633749,1.7134584 7.552926,1.7215384 7.52868,1.7296184 7.407436,1.596256 7.3144895,1.4709802 7.2700369,1.3941983 7.2134607,1.2689225 7.1649668,1.1476878 l -0.076782,-0.084864 -0.044453,-0.028288 0.028288,0.072741 v 0.040411 l 0.024246,0.096988 0.03637,0.080823 0.044453,0.064658 0.032329,0.096988 -0.064659,0.157605 -0.00404,0.1050701 v 0.072741 l -0.012123,0.080823 -0.012123,0.2586339 -0.047119,0.1538209 -0.074289,0.1661178 -0.029837,0.1843448 0.00267,0.1643123 0.011223,0.1497379 0.041315,0.1225677 0.064659,0.1100141 0.051632,0.078803 0.1046817,0.1492659 -0.1754877,0.00507 -0.070075,-0.096814 -0.094064,-0.1661178 -0.054771,-0.178068 -0.016853,-0.2046341 0.01238,-0.1597571 0.029406,-0.1490923 0.038391,-0.1023619 0.051632,-0.124158 0.046904,-0.1187835 0.046986,-0.3095788 -0.0687,-0.018185 -0.1616461,0.084864 -0.1171935,0.044453 -0.1091112,0.024247 -0.234387,-0.00808 -0.31521,0.0687 L 5.8637156,2.0973593 5.6131639,2.1903058 5.3828182,2.27517 5.1767194,2.3155816 4.9625382,2.3317463 4.5947925,2.2872934 4.1745124,2.2711288 3.6491624,2.2226349 3.1399769,2.145853 2.6509972,2.1054415 2.4772277,2.1135238 2.1620176,2.2105115 1.988248,2.2670876 1.7417375,2.3277049 1.4750213,2.4448984 1.2891282,2.5418861 1.1234409,2.719697 0.99412397,2.9177136 0.92946557,3.0793597 0.9173418,3.3177878 0.89309487,3.503681 0.85672447,3.6491624 0.83651877,3.7865616 0.76781915,4.0330721 0.73144877,4.146225 l 0.008082,0.1576049 0.0444527,0.10507 z"
         id="path908"
         sodipodi:nodetypes="ccccccccccccccccccccccccccccccccccscccccccccccccccccccccccccccccccccccccccccccccccccccccccccccccccccccccccccccccccccccccccccccccccccccccccccccccccccccccccccccccccccccccccccccccccscccccccccccccccccccccccccccccccccccccccccccccccccccccccccccccccccccccccccccccccccccccccccccccccccccccccccccccccccccccccccccccccccccccccccccccccccccccccccccccccccccccccccccccc" />
      <path
         style="fill:#000000;stroke:#000000;stroke-width:0.05;stroke-linecap:butt;stroke-linejoin:miter;stroke-miterlimit:4;stroke-dasharray:none;stroke-opacity:1"
         d="m 2.0345639,5.5521769 -0.024289,0.072867 -0.03415,0.089149 -0.10507,0.1131523 -0.1656873,0.1697283 -0.1454816,0.1778109 -0.1535639,0.21014 -0.03637,0.21014 0.016165,0.1656874 0.00404,0.084864 0.060617,0.1293169 0.064659,0.1171935 0.1131523,-0.012123 0.088905,0.00808 0.080823,0.00808 0.03637,0.052535 0.032329,0.056576 0.028288,0.072741 0.024617,0.071614 -0.025281,0.012599 -0.010997,-0.022934 -0.00723,-0.039095 -0.044546,-0.073774 -0.079686,-0.076585 -0.069536,0.018221 0.062208,0.062591 0.030541,0.036556 0.0265,0.037125 0.0093,0.028288 L 1.826596,7.383189 1.761938,7.403395 1.69728,7.411475 1.5275565,7.4033953 1.3982395,7.447848 1.2406344,7.5084648 1.151729,7.536753 1.0870705,7.5609999 1.0264532,7.4761356 0.96583591,7.2862013 0.90117744,7.0194852 0.83651896,6.8133864 0.77186048,6.5507112 0.74357242,6.3284478 0.71528434,6.122349 0.69911962,5.9202912 l 0.008082,-0.088905 0.0929465,-0.10507 0.0767819,-0.1737699 0.10507001,-0.1697283 0.0565762,-0.1171935 0.028288,-0.092947 0.024247,-0.1333582 0.00404,-0.1131523 0.024247,-0.1414404 0.00808,-0.088905 0.066964,-0.2152176 0.1085861,-0.1057291 0.074295,-0.1428766 0.037148,-0.071438 0.017146,-0.081439 0.03212,-0.056889 0.020715,-0.017426 0.018603,0.015737 v 0 l 0.060012,0.098585 0.080011,0.131446 0.1100106,0.1214446 0.080011,0.09287 0.062866,0.1071572 0.072867,0.1428765 0.044296,0.1671659 0.024285,0.1328745 0.051435,0.2000269 -0.00857,0.1343039 -0.02286,0.1042997 z"
         id="path1058"
         sodipodi:nodetypes="cccccccccccccccccccccccccccccccccccccccccccccccccccccccccccccccccccccccccccc" />
    </g>
  </g>
</svg>
