<?xml version="1.0" encoding="UTF-8" standalone="no"?>
<!-- Created with Inkscape (http://www.inkscape.org/) -->

<svg
   width="16.994879mm"
   height="6.4033279mm"
   viewBox="0 0 16.994879 6.4033279"
   version="1.1"
   id="svg2870"
   inkscape:version="1.1.1 (3bf5ae0d25, 2021-09-20)"
   sodipodi:docname="tiger_stripes_202x76_300svg.svg"
   xmlns:inkscape="http://www.inkscape.org/namespaces/inkscape"
   xmlns:sodipodi="http://sodipodi.sourceforge.net/DTD/sodipodi-0.dtd"
   xmlns="http://www.w3.org/2000/svg"
   xmlns:svg="http://www.w3.org/2000/svg">
  <sodipodi:namedview
     id="namedview2872"
     pagecolor="#ffffff"
     bordercolor="#666666"
     borderopacity="1.0"
     inkscape:pageshadow="2"
     inkscape:pageopacity="0.0"
     inkscape:pagecheckerboard="0"
     inkscape:document-units="mm"
     showgrid="false"
     fit-margin-top="0"
     fit-margin-left="0"
     fit-margin-right="0"
     fit-margin-bottom="0"
     inkscape:zoom="8.1840269"
     inkscape:cx="27.064916"
     inkscape:cy="13.318627"
     inkscape:window-width="1920"
     inkscape:window-height="992"
     inkscape:window-x="-8"
     inkscape:window-y="-8"
     inkscape:window-maximized="1"
     inkscape:current-layer="layer1" />
  <defs
     id="defs2867" />
  <g
     inkscape:label="Layer 1"
     inkscape:groupmode="layer"
     id="layer1"
     transform="translate(0.03163993,0.03848435)">
    <g
       id="g2604"
       transform="matrix(0.53588504,0,0,0.34829733,-31.561095,-10.625505)"
       inkscape:export-filename="H:\My Drive\School Related\UK Classes\NACIS\nacis_mapping_projects\2022 Map Quilt Minneapolis\2022-MN-map-quilt-gon-wild\images\tiger_stripes_202x76_300.png"
       inkscape:export-xdpi="301.46844"
       inkscape:export-ydpi="301.46844">
      <rect
         style="opacity:0.92;fill:#d38d5f;fill-opacity:0.974359;stroke:none;stroke-width:0;stroke-miterlimit:4;stroke-dasharray:none"
         id="rect110-4"
         width="31.709133"
         height="18.17588"
         x="58.840763"
         y="30.497" />
      <g
         id="g2349">
        <path
           style="fill:#000000;stroke:#000000;stroke-width:0.264583px;stroke-linecap:butt;stroke-linejoin:miter;stroke-opacity:1"
           d="m 59.421135,30.648116 -0.293172,1.196173 -0.04572,2.354601 -0.01143,1.257314 -0.05715,1.348753 0.125732,3.451894 0.05715,0.582935 0.10287,1.657366 0.274323,1.268741 0.396994,1.656683 0.533434,2.55401 0.145482,0.565761 0.614254,0.01617 -0.258633,-1.907424 -0.04849,-1.131522 -0.387951,-0.759738 0.06466,-1.47098 -0.06466,-2.069071 -0.355623,-1.503309 0.03233,-1.47098 0.226306,-2.117567 -0.09699,-1.43865 -0.09699,-1.761943 0.08082,-1.422487 z"
           id="path1410" />
        <path
           style="fill:#000000;stroke:#000000;stroke-width:0.264583px;stroke-linecap:butt;stroke-linejoin:miter;stroke-opacity:1"
           d="m 60.051555,48.55851 -1.066866,0.01617 -0.01617,-3.135937 z"
           id="path1480" />
        <path
           style="fill:#000000;stroke:#000000;stroke-width:0.264583px;stroke-linecap:butt;stroke-linejoin:miter;stroke-opacity:1"
           d="m 61.311115,30.655556 -0.240033,0.914411 -0.148593,1.28017 -0.06858,0.354335 0.10287,0.12573 0.331476,-0.274322 0.228602,-0.582936 0.20574,-0.240032 0.09144,-0.17145 -0.114303,-0.457205 0.194313,-0.354333 z"
           id="path1515" />
        <path
           style="fill:#000000;stroke:#000000;stroke-width:0.264583px;stroke-linecap:butt;stroke-linejoin:miter;stroke-opacity:1"
           d="m 64.180071,30.644126 -0.480063,0.571505 -0.342905,1.451626 -0.377193,1.005848 0.01143,1.291603 c 0,0 -0.10287,1.017281 -0.06858,0.971561 0.03429,-0.04572 -0.571505,1.09729 -0.571505,1.09729 l -0.342905,1.051571 -0.21717,1.063001 0.1143,0.880117 -0.08001,1.497344 0.01143,0.99442 0.285752,1.257311 0.04572,1.554496 0.217173,0.811538 0.308613,1.588785 0.13716,0.891548 0.845828,-0.02286 -0.01143,-0.697235 -0.16002,-0.994421 -0.320043,-0.845827 0.04572,-0.845828 -0.160023,-1.017281 -0.262892,-0.708668 -0.01143,-1.005848 -0.04572,-0.880118 0.06858,-0.811538 -0.02286,-0.811538 -0.05715,-0.98299 0.171452,-1.497346 0.662946,-0.822968 0.274322,-1.30303 0.05715,-1.200164 0.285753,-1.18873 0.708668,-0.594366 -0.03429,-0.560075 0.354333,-0.742958 0.262892,-0.457205 -0.777248,0.02286 z"
           id="path1550" />
        <path
           style="fill:#000000;stroke:#000000;stroke-width:0.264583px;stroke-linecap:butt;stroke-linejoin:miter;stroke-opacity:1"
           d="m 66.98045,30.655556 -0.342905,1.257313 -0.16002,0.800108 0.274322,0.320043 0.662946,-0.525786 0.182882,-0.845827 0.02286,-0.502926 0.342903,-0.320042 0.182883,-0.182883 -0.662948,-0.02286 z"
           id="path1684" />
        <path
           style="fill:#000000;stroke:#000000;stroke-width:0.264583px;stroke-linecap:butt;stroke-linejoin:miter;stroke-opacity:1"
           d="m 65.265932,31.295644 -0.05715,0.817253 -0.02286,0.760103 -0.09716,0.497207 0.08572,0.560076 -0.108585,0.491495 -0.205743,0.171453 -0.222888,0.560075 -0.06858,0.491495 -0.160022,0.257178 0.03429,0.58865 -0.377193,0.525785 -0.640085,0.05144 -0.211458,0.274323 0.16002,0.320043 0.36005,0.725813 0.120015,0.765818 0.148593,0.73724 0.20574,0.622943 0.05715,0.851543 0.17145,1.040138 0.194312,1.811673 0.354333,1.554496 0.302898,2.451759 -0.02286,0.405767 0.800107,0.01143 -0.18288,-1.034423 0.14859,-0.828685 -0.240032,-1.263026 -0.360048,-1.228738 -0.131447,-1.400188 0.09144,-1.708801 -0.222887,-1.171586 -0.354333,-1.697373 -0.08573,-0.468633 0.394341,-1.388758 0.360047,-0.99442 0.40577,-1.028711 0.06287,-1.885969 0.120015,-0.862972 -0.01714,-1.045856 -0.428627,0.0057 z"
           id="path1719" />
        <path
           style="fill:#000000;stroke:#000000;stroke-width:0.264583px;stroke-linecap:butt;stroke-linejoin:miter;stroke-opacity:1"
           d="m 70.073617,30.648116 -1.0507,1.244674 -0.727408,1.616461 -0.129316,3.313748 -0.565763,1.632627 -0.01617,2.52168 0.06466,1.68112 -0.339457,1.778109 0.17781,2.036741 0.129318,2.13373 h 0.986041 l 0.06466,-2.440858 0.06466,-1.438651 0.21014,-1.632627 -0.161647,-1.309333 1.002207,-1.422487 0.274799,-1.632625 0.161645,-0.808233 -0.501103,-0.775902 0.290962,-1.422484 -0.17781,-1.664957 0.63042,-2.182222 0.953712,-1.228511 z"
           id="path1754" />
        <path
           style="fill:#000000;stroke:#000000;stroke-width:0.264583px;stroke-linecap:butt;stroke-linejoin:miter;stroke-opacity:1"
           d="m 71.172813,33.800216 0.242466,0.436444 0.468776,-0.03233 0.484939,-1.131522 0.937546,-1.277006 0.468775,-1.180016 -1.26084,0.01617 -0.307128,0.775902 -0.533432,0.824396 -0.549598,1.163852 z"
           id="path1789" />
        <path
           style="fill:#000000;stroke:#000000;stroke-width:0.264583px;stroke-linecap:butt;stroke-linejoin:miter;stroke-opacity:1"
           d="m 78.188255,30.59962 -0.969877,1.212348 -1.163852,1.955919 -0.565761,1.293169 v 1.519473 l -0.711243,0.84056 -0.113154,1.228511 0.145481,0.969878 0.09699,1.034536 -0.161644,1.066864 -0.323294,1.115359 -0.484939,0.727408 -0.468773,1.131523 -0.03233,1.487143 0.387951,1.29317 0.775901,1.163854 -1.972082,-0.06466 0.01617,-1.22851 -0.339458,-2.101401 0.501102,-1.664956 0.565761,-1.535639 0.581928,-0.66275 0.03233,-1.083029 -0.113152,-1.616462 -0.533434,-2.052904 0.452609,-1.632628 0.581928,-1.584131 0.63042,-1.519476 0.695079,-0.808231 c 0,0 0.484939,-0.501102 0.42028,-0.436443 -0.06466,0.06466 2.06907,-0.0485 2.06907,-0.0485 z"
           id="path1824" />
        <path
           style="fill:#000000;stroke:#000000;stroke-width:0.264583px;stroke-linecap:butt;stroke-linejoin:miter;stroke-opacity:1"
           d="m 73.613668,38.035346 -0.45261,1.487143 -0.04849,2.149896 0.258638,0.371785 -0.775907,1.988248 -0.59809,-0.889053 -0.42028,-1.551805 0.290962,-1.47098 0.581927,-1.745779 0.889058,-1.745776 0.193972,1.212344 z"
           id="path1859" />
        <path
           style="fill:#000000;stroke:#000000;stroke-width:0.264583px;stroke-linecap:butt;stroke-linejoin:miter;stroke-opacity:1"
           d="m 83.348369,30.586976 -1.280174,1.554496 -0.93727,2.148861 -0.548645,2.354601 -1.600214,2.148861 -1.257313,1.325893 -0.891548,1.851679 -0.662948,1.21159 -0.342902,1.097291 -0.251463,-0.06858 -0.13716,-0.205743 -0.04572,-0.365762 0.228603,-0.662945 0.434345,-1.691659 0.594366,-1.371613 0.434345,-1.120151 0.18288,-0.708665 0.640088,-0.09144 v 0.411486 l -0.182883,0.297182 0.182883,0.274323 0.480062,-0.160023 0.114303,-0.388622 0.13716,-0.548646 0.342905,-0.480065 0.457203,-0.274323 0.182883,-0.640085 -0.137163,-1.12015 -0.09144,-0.571506 v -0.480065 l 0.548645,-1.028711 0.160023,-0.914408 0.640085,-0.845827 0.754388,-0.868691 1.097291,-0.02286 z"
           id="path1910" />
        <path
           style="fill:#000000;stroke:#000000;stroke-width:0.264583px;stroke-linecap:butt;stroke-linejoin:miter;stroke-opacity:1"
           d="m 77.907638,37.99369 v 0 l 0.640083,-1.120153 0.457205,-0.342903 0.617228,-0.04572 -0.228602,-1.691656 -0.480068,0.09144 -0.457203,0.594366 -0.320045,0.480065 -0.411483,0.548645 -0.502925,0.777248 0.04572,0.800108 v 0 l 0.640088,-0.09144"
           id="path1945" />
        <path
           style="fill:#000000;stroke:#000000;stroke-width:0.264583px;stroke-linecap:butt;stroke-linejoin:miter;stroke-opacity:1"
           d="m 77.51901,48.55511 -0.06858,-0.754388 0.06858,-1.09729 0.594366,-1.028711 0.594368,-1.371613 0.708665,-1.783096 0.960131,-0.891548 0.502922,-0.160022 1.280173,-0.777248 0.868688,-1.257311 0.251463,-1.00585 0.342905,-1.165871 0.822968,-1.463056 c 0,0 0.480063,-0.685805 0.548645,-0.937268 0.06858,-0.251462 0.16002,-0.662948 0.16002,-0.662948 l 1.120151,-2.148861 0.891551,-1.371613 -1.668799,-0.04572 -0.571505,0.502925 -0.1143,0.434346 -0.640085,1.23445 -0.182883,0.502925 -0.365763,1.417334 -0.594368,1.14301 -0.685805,1.348753 -0.548645,1.303034 -0.320043,0.800108 -0.93727,1.12015 -1.417334,0.868688 -0.845828,1.143013 -0.365762,0.594365 -0.960131,1.074431 c 0,0 -0.251462,1.120151 -0.274322,1.211591 -0.02286,0.09144 -0.182883,0.548645 -0.251463,0.96013 -0.06858,0.411483 -0.228603,1.188731 -0.228603,1.188731 l 0.02286,0.525785 0.205743,0.548645 z"
           id="path1980" />
        <path
           style="fill:#000000;stroke:#000000;stroke-width:0.264583px;stroke-linecap:butt;stroke-linejoin:miter;stroke-opacity:1"
           d="m 82.159633,40.691194 -0.571503,1.371613 -0.09144,0.822968 0.02286,1.12015 -0.708668,1.577356 -0.662945,1.120151 -0.708668,1.211593 -0.18288,0.617225 -0.937271,0.09144 0.182883,-0.685805 0.457203,-0.960131 0.480065,-1.02871 0.297183,-1.120151 0.205742,-0.982988 c 0,0 0.388623,-0.731528 0.457206,-0.822968 0.06858,-0.09144 0.480062,-1.554495 0.480062,-1.554495 z"
           id="path2015" />
        <path
           style="fill:#000000;stroke:#000000;stroke-width:0.264583px;stroke-linecap:butt;stroke-linejoin:miter;stroke-opacity:1"
           d="m 80.833742,48.60083 0.320043,-0.320042 0.571508,-0.617226 -0.114303,-0.388625 -0.297183,-0.06858 -0.685805,0.411485 -0.251462,0.434343 -0.228603,0.502925 0.342903,0.09144 z"
           id="path2050" />
        <path
           style="fill:#000000;stroke:#000000;stroke-width:0.264583px;stroke-linecap:butt;stroke-linejoin:miter;stroke-opacity:1"
           d="m 82.822583,48.57797 0.457203,-0.685805 c 0,0 0.548645,-0.434345 0.594365,-0.525785 0.04572,-0.09144 0.571508,-0.502926 0.662948,-0.640088 0.09144,-0.13716 0.525785,-0.777248 0.525785,-0.777248 0,0 0.548646,-0.525783 0.617226,-0.640085 0.06858,-0.1143 0.388625,-0.342903 0.388625,-0.342903 l 0.342903,0.320043 c 0,0 -0.02286,0.480065 -0.04572,0.571505 -0.02286,0.09144 -0.205743,0.434345 -0.251463,0.617225 -0.04572,0.182883 -0.388625,1.120151 -0.388625,1.120151 0,0 -0.06858,0.502925 -0.18288,0.571508 -0.114303,0.06858 -0.457206,0.2286 -0.457206,0.2286 l -0.251462,0.182882 -0.342903,0.04572 -1.165873,-0.04572 z"
           id="path2085" />
        <path
           style="fill:#000000;stroke:#000000;stroke-width:0.264583px;stroke-linecap:butt;stroke-linejoin:miter;stroke-opacity:1"
           d="m 90.229295,31.455664 -0.480066,0.457205 -0.297182,0.13716 -0.251463,-0.16002 0.09144,-0.274322 0.137163,-0.320043 0.205742,-0.365765 -0.02286,-0.297183 -0.571505,0.04572 -0.388623,0.800108 -0.02286,0.594368 -0.205742,1.23445 -0.525786,1.668796 -0.228602,1.257313 -0.594365,0.960128 -0.434343,0.868691 0.18288,0.434343 0.274323,0.274322 0.06858,0.411486 -0.205742,0.708665 c 0,0 -0.274323,0.594365 -0.297183,0.685808 -0.02286,0.09144 -0.297183,0.525785 -0.297183,0.525785 l -0.04572,0.617225 0.411485,0.09144 0.662945,-0.685805 0.297183,-0.937271 0.160022,-0.777247 0.480066,-0.594366 0.04572,-0.777248 0.342902,-0.845828 c 0,0 0.160023,-0.800108 0.160023,-0.960128 0,-0.160022 -0.342903,-0.731527 -0.04572,-1.02871 0.297183,-0.297183 0.502923,-0.845828 0.708665,-1.165871 0.205743,-0.320042 0.571506,-0.822968 0.571506,-0.822968 l 0.06858,-0.205742 z"
           id="path2120" />
        <path
           style="fill:#000000;stroke:#000000;stroke-width:0.264583px;stroke-linecap:butt;stroke-linejoin:miter;stroke-opacity:1"
           d="m 87.097446,38.770935 -0.960131,0.800108 -0.160023,0.662945 c 0,0 0.845831,0.731528 0.388626,0.868691 -0.457206,0.13716 -0.04572,0.617225 -0.04572,0.617225 l 0.411485,0.09144 -0.365765,1.074431 -0.411486,0.891548 -0.640085,0.434345 -0.800108,0.914408 -0.548645,0.548645 -0.685808,0.731528 -0.822968,0.274323 c 0,0 -0.251463,-0.1143 -0.18288,-0.365763 0.06858,-0.251462 0.411483,-0.868688 0.480063,-0.96013 0.06858,-0.09144 0.662948,-0.525786 0.822968,-0.777248 0.160022,-0.251463 0.457205,-0.731526 0.502925,-0.891548 0.04572,-0.16002 0.411485,-1.143011 0.411485,-1.143011 l 0.571505,-1.417333 0.205743,-0.868688 0.274323,-0.777248 c 0,0 0.342902,-0.548645 0.411482,-0.685808 0.06858,-0.13716 0.685811,-0.731525 0.685811,-0.731525 l 0.457203,0.708665"
           id="path2155" />
        <path
           style="fill:#000000;stroke:#000000;stroke-width:0.264583px;stroke-linecap:butt;stroke-linejoin:miter;stroke-opacity:1"
           d="m 89.497767,48.50939 -0.160023,-0.365765 -0.1143,-0.982988 c 0,0 0.320043,-1.280173 0.365763,-1.394473 0.04572,-0.114303 0.114302,-0.777248 0.137162,-0.868688 0.02286,-0.09144 0.297183,-0.731528 0.297183,-0.731528 l 0.251463,-0.480065 -0.04572,-1.325893 0.02286,-1.485914 -0.434346,0.228603 -0.274322,0.480063 -0.297183,0.777248 -0.1143,0.98299 -0.320043,0.891548 c 0,0 -0.274322,1.074431 -0.320045,1.211593 -0.04572,0.13716 -0.251463,0.822968 -0.251463,0.822968 0,0 -0.297182,0.594365 -0.320042,0.800108 -0.02286,0.20574 -0.02286,0.868688 -0.02286,0.960128 0,0.09144 0,0.525785 0,0.525785 l 0.640088,0.06858 0.708665,-0.02286 z"
           id="path2190" />
      </g>
    </g>
  </g>
</svg>
